<svg xmlns="http://www.w3.org/2000/svg" viewBox="0 0 64 64" fill="none" stroke="currentColor" stroke-width="2" stroke-linecap="round" stroke-linejoin="round">
  <!-- Cake Base -->
  <rect x="8" y="32" width="48" height="24" rx="2" ry="2" fill="#F472B6" stroke="none" />
  
  <!-- Icing/Cream (Dripping effect) -->
  <path d="M8 32 C8 32, 12 38, 16 32 C 16 32, 20 38, 24 32 C 24 32, 28 38, 32 32 C 32 32, 36 38, 40 32 C 40 32, 44 38, 48 32 C 48 32, 52 38, 56 32 L 56 24 L 8 24 Z" fill="#FDF2F8" stroke="none"/>
  
  <!-- Stripe/Layer -->
  <rect x="8" y="44" width="48" height="4" fill="#DB2777" stroke="none" opacity="0.4"/>

  <!-- Candles -->
  <rect x="16" y="12" width="4" height="14" fill="#60A5FA" stroke="none"/>
  <rect x="30" y="8" width="4" height="18" fill="#FBBF24" stroke="none"/>
  <rect x="44" y="12" width="4" height="14" fill="#34D399" stroke="none"/>

  <!-- Flames -->
  <path d="M18 4 Q18 0, 16 4 Q14 8, 18 10 Q22 8, 20 4 Q18 0 18 4" fill="#EF4444" stroke="none" transform="translate(0, 2)"/>
  <path d="M32 0 Q32 -4, 30 0 Q28 4, 32 6 Q36 4, 34 0 Q32 -4 32 0" fill="#EF4444" stroke="none" transform="translate(0, 2)"/>
  <path d="M46 4 Q46 0, 44 4 Q42 8, 46 10 Q50 8, 48 4 Q46 0 46 4" fill="#EF4444" stroke="none" transform="translate(0, 2)"/>
  
  <!-- Decorative Plate line -->
  <line x1="4" y1="58" x2="60" y2="58" stroke="#94A3B8" stroke-width="2"/>
</svg>
