<svg xmlns="http://www.w3.org/2000/svg" viewBox="0 0 512 512"><!--!Font Awesome Free 6.7.2 by @fontawesome - https://fontawesome.com License - https://fontawesome.com/license/free Copyright 2025 Fonticons, Inc.--><path fill="#ff69b4" d="M192 32c0 17.7 14.3 32 32 32c12.3 0 23.1-6.9 28.6-17.1c-1.8 .8-3.7 1.3-5.7 1.5c-6.8 .6-13.4-1.9-18.4-6.9l-5.6-5.6 5.6-5.6c5-5 11.6-7.5 18.4-6.9c2 .2 4 .7 5.7 1.5C247.1 22.9 236.3 16 224 16c-17.7 0-32 14.3-32 32zM320 32c0 17.7 14.3 32 32 32c12.3 0 23.1-6.9 28.6-17.1c-1.8 .8-3.7 1.3-5.7 1.5c-6.8 .6-13.4-1.9-18.4-6.9l-5.6-5.6 5.6-5.6c5-5 11.6-7.5 18.4-6.9c2 .2 4 .7 5.7 1.5C407.1 22.9 396.3 16 384 16c-17.7 0-32 14.3-32 32zm145.4 122l-41-65.7c-4.4-7.1-12.1-11.4-20.5-11.4L372.9 77c-7.5 0-14.4 3.5-18.8 9.6L343 101.8c-2 .6-4 .9-6.2 .6l-9.5-1.4c-.6-.1-1.2-.2-1.8-.2l-58.9-5.9c-8.9-.9-17.8 2.2-24.1 8.4l-6.8 6.8c-5.5 5.5-13.9 7.3-21.2 4.7l-15.4-5.5c-3.5-1.3-7.3-1.8-11-1.4L110 115.1c-10.4 1-19 8.2-21.9 18.2l-15.1 52.9c-1.2 4.1-.7 8.5 1.4 12.3l21.6 38.3c-11.7 8.6-19.1 22.4-19.1 37.8L76.9 448c0 10 3.7 19.6 10.2 27.1c-.2 1.6-.3 3.3-.3 4.9c0 17.7 14.3 32 32 32l274.5 0c17.7 0 32-14.3 32-32c0-1.6-.1-3.3-.3-4.9c6.6-7.5 10.2-17.1 10.2-27.1l0-173.4c0-15.4-7.4-29.2-19.1-37.8l21.6-38.3c2.1-3.7 2.6-8.1 1.4-12.3l-15.1-52.9c-2.9-10-11.5-17.2-21.9-18.2l-51.5-5.2c-1.9-.2-3.8-.2-5.7 0l21-10.5c7.1-3.5 11.6-10.8 11.6-18.7c0-3.3-.8-6.6-2.3-9.5zM192 144l0 144 128 0 0-144c17.7 0 32 14.3 32 32l0 112 0 160 0 17.6c0 8.8-7.2 16-16 16l-208 0c-8.8 0-16-7.2-16-16l0-17.6 0-160 0-112c0-17.7 14.3-32 32-32z"/></svg>
